<?xml version="1.0" standalone="no"?><!DOCTYPE svg PUBLIC "-//W3C//DTD SVG 1.1//EN" "http://www.w3.org/Graphics/SVG/1.1/DTD/svg11.dtd"><svg t="1745241592438" class="icon" viewBox="0 0 1024 1024" version="1.1" xmlns="http://www.w3.org/2000/svg" p-id="18848" xmlns:xlink="http://www.w3.org/1999/xlink" width="32" height="32"><path d="M666.8 189.4H210.9c-34.2 0-62.2 28-62.2 62.2v302.5c0 34.2 28 62.2 62.2 62.2h103.6v118.1l90.8-118.1h261.4c34.2 0 62.2-28 62.2-62.2V251.6c0-34.2-27.9-62.2-62.1-62.2zM273.2 402.8c0-22.8 18.5-41.3 41.3-41.3 22.8 0 41.3 18.5 41.3 41.3 0 22.8-18.5 41.3-41.3 41.3-22.8 0-41.3-18.5-41.3-41.3z m165.7 41.3c-22.8 0-41.3-18.5-41.3-41.3 0-22.8 18.5-41.3 41.3-41.3 22.8 0 41.3 18.5 41.3 41.3 0 22.8-18.5 41.3-41.3 41.3z m124.3 0c-22.8 0-41.3-18.5-41.3-41.3 0-22.8 18.5-41.3 41.3-41.3 22.8 0 41.3 18.5 41.3 41.3 0 22.8-18.5 41.3-41.3 41.3z" fill="#c4c4c4" p-id="18849"></path><path d="M818.4 336.7h-43.2v252.5c0 34.2-28 62.2-62.2 62.2H449.9v42.2c9 19.5 28.7 33.2 51.5 33.2h139.4l83 107.9v-108h94.7c31.2 0 56.8-25.6 56.8-56.8V393.5c-0.1-31.3-25.6-56.8-56.9-56.8z" fill="#c4c4c4" p-id="18850"></path></svg>