<?xml version="1.0" standalone="no"?><!DOCTYPE svg PUBLIC "-//W3C//DTD SVG 1.1//EN" "http://www.w3.org/Graphics/SVG/1.1/DTD/svg11.dtd"><svg t="1745241135332" class="icon" viewBox="0 0 1024 1024" version="1.1" xmlns="http://www.w3.org/2000/svg" p-id="4192" xmlns:xlink="http://www.w3.org/1999/xlink" width="32" height="32"><path d="M512 234.667c131.947 0 252.245 80.512 360.875 241.536a64 64 0 0 1 2.41 67.712l-2.41 3.882-6.059 8.854C759.786 711.765 641.493 789.333 512 789.333c-131.947 0-252.245-80.512-360.875-241.536a64 64 0 0 1-2.41-67.712l2.41-3.882 6.059-8.854C264.214 312.235 382.507 234.667 512 234.667z m0 64c-105.77 0-206.037 65.749-301.952 204.757L204.181 512l5.888 8.597c96 139.051 196.246 204.736 301.931 204.736 105.77 0 206.037-65.749 301.952-204.757l5.867-8.576-5.888-8.597C717.93 364.352 617.685 298.667 512 298.667z m0 77.482a141.483 141.483 0 1 1 0 282.944 141.483 141.483 0 0 1 0-282.944z m0 64a77.483 77.483 0 1 0 0 154.944 77.483 77.483 0 0 0 0-154.944z" p-id="4193" fill="#c4c4c4"></path></svg>