<?xml version="1.0" standalone="no"?><!DOCTYPE svg PUBLIC "-//W3C//DTD SVG 1.1//EN" "http://www.w3.org/Graphics/SVG/1.1/DTD/svg11.dtd"><svg t="1741869605226" class="icon" viewBox="0 0 1028 1024" version="1.1" xmlns="http://www.w3.org/2000/svg" p-id="2906" xmlns:xlink="http://www.w3.org/1999/xlink" width="32.125" height="32"><path d="M1006.933 750.933L1024 727.467 974.933 646.4l-29.866 2.133c-36.267 4.267-70.4-14.933-85.334-49.066L849.067 576h-98.134l-12.8 25.6c-14.933 32-49.066 51.2-85.333 49.067l-29.867-2.134L576 729.6l17.067 23.467c21.333 27.733 21.333 68.266 0 96L576 870.4l49.067 81.067 29.866-2.134c36.267-4.266 70.4 14.934 85.334 49.067l12.8 25.6H851.2l12.8-25.6c14.933-32 49.067-51.2 85.333-49.067l29.867 2.134 49.067-81.067-17.067-23.467c-25.6-27.733-25.6-66.133-4.267-96zM800 913.067c-61.867 0-113.067-51.2-113.067-113.067S738.133 686.933 800 686.933 913.067 738.133 913.067 800 861.867 913.067 800 913.067zM654.933 499.2c-21.333-10.667-42.666-21.333-66.133-27.733C657.067 424.533 704 345.6 704 256 704 115.2 588.8 0 448 0S192 115.2 192 256c0 89.6 46.933 168.533 117.333 215.467C130.133 529.067 0 697.6 0 896h64c0-211.2 172.8-384 384-384 55.467 0 110.933 12.8 157.867 34.133l49.066-46.933zM256 256c0-106.667 85.333-192 192-192s192 85.333 192 192-85.333 192-192 192-192-85.333-192-192z" p-id="2907" fill="#2c2c2c"></path></svg>