<?xml version="1.0" standalone="no"?><!DOCTYPE svg PUBLIC "-//W3C//DTD SVG 1.1//EN" "http://www.w3.org/Graphics/SVG/1.1/DTD/svg11.dtd"><svg t="1740501373808" class="icon" viewBox="0 0 1024 1024" version="1.1" xmlns="http://www.w3.org/2000/svg" p-id="2893" xmlns:xlink="http://www.w3.org/1999/xlink" width="200" height="200"><path d="M663.792 512l200.455-201.616c24.333-24.333 24.333-64.888 0-89.22s-64.888-24.333-89.22 0l-244.487 245.648c-24.333 24.333-20.858 42.873 3.476 67.206l241.012 267.663c24.333 24.333 64.888 24.333 89.22 0s24.333-64.887 0-89.22l-200.455-200.458z" p-id="2894" fill="#8a8a8a"></path><path d="M291.844 512l264.187-264.187c24.333-24.333 24.333-63.729 0-88.062s-63.729-24.333-88.062 0l-308.218 308.218c-24.333 24.333-24.333 63.729 0 88.062l308.218 308.218c24.333 24.333 63.729 24.333 88.062 0s24.333-63.729 0-88.062l-264.187-264.187z" p-id="2895" fill="#8a8a8a"></path></svg>