<?xml version="1.0" standalone="no"?><!DOCTYPE svg PUBLIC "-//W3C//DTD SVG 1.1//EN" "http://www.w3.org/Graphics/SVG/1.1/DTD/svg11.dtd"><svg t="1739271207251" class="icon" viewBox="0 0 1024 1024" version="1.1" xmlns="http://www.w3.org/2000/svg" p-id="9685" xmlns:xlink="http://www.w3.org/1999/xlink" width="200" height="200"><path d="M469.33333299 58.88c-90.88 81.493333-149.333333 230.186667-149.33333299 378.453333l0 6.826667a193.28 193.28 0 0 0-109.226667 289.493333 188.373333 188.373333 0 0 0 47.36 51.2 42.666667 42.666667 0 0 0 45.653334 2.773334 42.666667 42.666667 0 0 0 21.333333-42.666667A149.333333 149.333333 0 0 1 355.626667 640l6.4 16.426667A42.666667 42.666667 0 0 0 401.28 682.666667l221.44 0A42.666667 42.666667 0 0 0 661.333333 656.64l7.466667-16.64a150.4 150.4 0 0 1 30.506667 106.666667 42.666667 42.666667 0 0 0 21.333333 42.666666 42.666667 42.666667 0 0 0 45.866667-2.773333 187.946667 187.946667 0 0 0 47.36-51.19999999 194.56 194.56 0 0 0 29.653333-103.89333301A192 192 0 0 0 704 443.946667l0-6.613334c0-149.333333-58.666667-296.96000001-149.33333299-378.453333a64 64 0 0 0-85.33333402 0z m-130.77333298 535.68a192 192 0 0 0-55.04000001 155.946667 146.133333 146.133333 0 0 1-36.693333-39.68 152.533333 152.533333 0 0 1 10.24-176.21333401 149.333333 149.333333 0 0 1 65.28-46.29333299 615.04 615.04 0 0 0 18.346666 104.746667 20.053333 20.053333 0 0 0-2.13333299 1.493333zM768 534.826667a152.32 152.32 0 0 1 10.24 176.213333 135.893333 135.893333 0 0 1-36.266667 38.826667 192 192 0 0 0-55.466666-155.093334 21.333333 21.333333 0 0 0-3.84-2.133333 615.466667 615.466667 0 0 0 18.346666-104.533333A149.333333 149.333333 0 0 1 768 534.826667z m-242.133333-444.16C608.213333 164.48 661.333333 300.586667 661.333333 437.333333a546.773333 546.773333 0 0 1-38.613333 202.666667L401.28 640A549.76 549.76 0 0 1 362.666667 437.333333c0-136.746667 53.12-272.853333 135.466666-346.666666a21.333333 21.333333 0 0 1 27.733334 0z" fill="#ffffff" p-id="9686"></path><path d="M426.666667 341.333333a85.333333 85.333333 0 1 0 85.333333-85.33333299 85.333333 85.333333 0 0 0-85.333333 85.33333299z m128 0a42.666667 42.666667 0 1 1-42.666667-42.666666 42.666667 42.666667 0 0 1 42.666667 42.666666zM448 896l0-149.333333a21.333333 21.333333 0 0 0-42.666667 0L405.333333 896a21.333333 21.333333 0 0 0 42.666667 0zM597.333333 725.333333a21.333333 21.333333 0 0 0-21.333333 21.333334L576.00000001 832a21.333333 21.333333 0 0 0 42.66666699 0l0-85.333333a21.333333 21.333333 0 0 0-21.333334-21.333334zM512 725.333333a21.333333 21.333333 0 0 0-21.333333 21.33333399L490.666667 960a21.333333 21.333333 0 0 0 42.666666 0l0-213.33333301a21.333333 21.333333 0 0 0-21.333333-21.33333399z" fill="#ffffff" p-id="9687"></path><path d="M426.666667 576m0 21.333333a21.333333 21.333333 0 1 0 0-42.666666 21.333333 21.333333 0 1 0 0 42.666666Z" fill="#ffffff" p-id="9688"></path><path d="M512 576.00000001m0 21.333333a21.333333 21.333333 0 1 0 0-42.666666 21.333333 21.333333 0 1 0 0 42.666666Z" fill="#ffffff" p-id="9689"></path><path d="M597.333333 576m0 21.333333a21.333333 21.333333 0 1 0 0-42.666666 21.333333 21.333333 0 1 0 0 42.666666Z" fill="#ffffff" p-id="9690"></path></svg>