<?xml version="1.0" standalone="no"?><!DOCTYPE svg PUBLIC "-//W3C//DTD SVG 1.1//EN" "http://www.w3.org/Graphics/SVG/1.1/DTD/svg11.dtd"><svg t="1742365774710" class="icon" viewBox="0 0 1024 1024" version="1.1" xmlns="http://www.w3.org/2000/svg" p-id="3455" width="256" height="256" xmlns:xlink="http://www.w3.org/1999/xlink"><path d="M864 473.6s0-230.4-198.4-281.6c-198.4-51.2-288 128-288 134.4 0 6.4-12.8 0-12.8 0-12.8-12.8-83.2-44.8-153.6 12.8-70.4 51.2-44.8 134.4-44.8 134.4S44.8 467.2 6.4 620.8c-38.4 153.6 134.4 224 134.4 224h320v-172.8H390.4c-6.4-6.4-6.4-6.4-6.4-12.8v-6.4l128-134.4 6.4-6.4s6.4 0 6.4 6.4l128 134.4v6.4c0 6.4-6.4 6.4-6.4 6.4H576v172.8h288s134.4-19.2 147.2-179.2c25.6-153.6-147.2-185.6-147.2-185.6z" p-id="3456" fill="#bfbfbf"></path></svg>