<?xml version="1.0" standalone="no"?><!DOCTYPE svg PUBLIC "-//W3C//DTD SVG 1.1//EN" "http://www.w3.org/Graphics/SVG/1.1/DTD/svg11.dtd"><svg t="1741756623653" class="icon" viewBox="0 0 1024 1024" version="1.1" xmlns="http://www.w3.org/2000/svg" p-id="3123" xmlns:xlink="http://www.w3.org/1999/xlink" width="32" height="32"><path d="M125.02199819 512.63048921a388.23898022 262.36486171 0 1 0 776.47796044 0 388.23898022 262.36486171 0 1 0-776.47796044 0Z" fill="#000000" p-id="3124"></path><path d="M513.24064004 678.16441242c-91.27856585 0-165.5339232-74.25535738-165.5339232-165.53392321s74.25535738-165.5339232 165.5339232-165.5339232S678.77456325 421.35192336 678.77456325 512.63048921s-74.25535738 165.5339232-165.53392321 165.53392321z m0-282.98796012c-64.75734261 0-117.45403693 52.69669429-117.45403689 117.45403691s52.69669429 117.45403693 117.45403689 117.45403692c64.77768096 0 117.45403693-52.67635595 117.45403693-117.45403692s-52.67635595-117.45403693-117.45403693-117.45403691z" fill="#FFFFFF" p-id="3125"></path></svg>