<?xml version="1.0" standalone="no"?><!DOCTYPE svg PUBLIC "-//W3C//DTD SVG 1.1//EN" "http://www.w3.org/Graphics/SVG/1.1/DTD/svg11.dtd"><svg class="icon" width="200px" height="200.00px" viewBox="0 0 1024 1024" version="1.1" xmlns="http://www.w3.org/2000/svg"><path fill="#C0C0C0" d="M631.05868483-14.6052235c28.60929581-8.2462088 59.26396208-7.83195653 88.15805631-1.19097522 33.1790159 7.88373808 64.57156898 23.12045353 91.58858271 43.88484741 9.86438163 7.49537659 18.77080494 16.81605215 23.3016889 28.54456889 7.01639743 17.34681283 5.13931694 38.08531595-5.21698925 53.71039289-9.03587714 14.03279486-24.40204642 23.80655882-40.95919091 25.90371081-13.23018114 1.81235358-27.09468603-0.99679447-38.46073206-8.02613728-6.40796445-3.76710637-11.28837373-9.5795832-17.72222892-13.30785343-17.25619517-10.95179378-37.12735763-19.57341867-57.90469689-19.08149412-14.62828247 0.16828997-27.49599289 8.73813333-37.41215605 18.80964108-9.28183941 9.5795832-14.0069041 23.70299575-10.9388484 36.84255922 7.13290587 26.84872375 14.22697561 53.6974475 21.3469361 80.54617125 51.18604325 2.62791269 102.34619575 16.16878302 146.3475516 42.88805294 42.7715445 26.46036227 81.4135119 60.01479427 112.05523279 100.00308148 26.00727387 33.89101195 45.72309175 72.59770627 57.78818844 113.58278795 13.06189117 44.16964583 17.29503131 90.74713283 13.89039566 136.62556918-2.83503882 37.85229906-10.27863387 75.48452661-23.12045353 111.25261906-33.20490667 87.09653491-94.70841995 163.46134755-173.86943525 212.95154569-58.06004148 36.67426924-124.74170785 58.7979283-192.74380326 67.23831783-46.93995773 5.86425837-94.77314686 5.89014914-141.48008771-2.11009738-95.97706747-15.85809383-185.92158657-63.69128297-254.18258963-132.78079053-67.83380543-67.96325925-115.04561619-156.17309709-134.1400557-250.27308405-14.08457639-68.62347378-13.45025264-140.27616711 2.1748243-208.5889517 19.0944395-84.23560533 61.29638717-163.03414992 120.62507614-225.78041995 48.38984059-51.5226232 108.15867259-92.28763339 173.7658722-118.60559644 6.75748978-2.57613117 13.4114165-5.63124148 20.60904928-6.77043517 15.36616928-2.69263961 31.78091457 0.94501294 44.36382657 10.21390696 17.03612365 12.02626053 26.40858075 33.83923042 23.57354192 54.47417048-2.34311427 21.06213769-17.29503131 40.05301413-37.2179753 47.26359229-66.2803595 24.77746252-125.05239703 69.05067141-167.35790775 125.73850233-37.81346291 50.30575724-62.48736237 110.39822381-70.75946194 172.80791386-8.34977185 61.77536631-0.91912217 125.57021235 21.21748228 183.82443458 31.97509531 85.16767289 95.54986983 158.45148445 176.60091102 200.16150756 48.80409283 25.28233245 103.74429709 38.48662282 158.6974467 38.11120672 45.20527645-0.58254222 90.5529521-7.84490192 133.03969819-23.56059655 37.36037452-13.87745027 72.37763476-34.36999111 102.152015-60.93391645 27.75490053-24.59622717 50.84946331-54.31882587 68.46812919-86.92824494 8.82875102-16.6348168 16.98434213-33.76155813 21.96831447-51.9757116 14.70595476-52.06632928 17.25619517-108.49525253 1.52755515-160.63925412-13.01010963-43.72950282-39.78116109-82.70805017-73.96991683-112.6507204-15.12020702-13.23018114-31.27604464-25.36000475-48.59696672-35.56096632-15.30144237-8.59573413-32.01393147-14.44704711-49.06300048-18.44717037 11.88386133 46.47392395 24.59622717 92.75366717 36.64837846 139.18875496 2.04537047 11.13302914 4.09074094 22.26605827 6.00665757 33.42497818 1.76057205 47.91086143-15.04253472 96.17124819-45.94316325 132.81962667-28.79053117 34.53828109-69.67204978 58.83676445-113.89347713 67.18653628-47.66489917 9.50191091-98.91566933 0.53076069-139.84896949-25.89076542-39.08211042-24.77746252-67.95031387-64.01491753-83.17408394-107.44667655-8.62162489-24.29848336-12.91949195-49.99506805-13.77388722-75.73048889-2.61496731-55.98878025 12.02626053-113.19442647 44.05313738-159.50006044 37.63222755-55.26383882 96.96091653-93.25853709 160.57452721-111.79632514-4.68622853-17.91640969-9.47602015-35.80692859-14.21403023-53.72333828-12.28516819-38.66785817-9.67020089-82.08667181 8.66046105-118.43730646 9.89027239-20.28541472 24.59622717-37.95586213 41.60646005-52.6488715 18.93909491-16.19467378 41.04980859-28.9847119 65.1541112-35.61274785M479.17050943 406.57280317c-17.06201442 17.91640969-29.02354805 40.57082943-34.17581037 64.75280433-4.63444702 21.95536909-4.66033778 44.84280573-0.49192454 66.86290174 5.08753541 24.32437413 17.64455664 48.11798755 38.46073205 62.47441698 16.15583763 11.46960909 37.19208453 14.95191703 56.4677594 11.18481067 35.66452939-6.26556524 64.76574973-39.08211042 65.7625442-75.39390894-1.35926518-8.99704098-2.84798419-17.99408197-5.3852792-26.7451607-13.32079882-50.38342953-26.75810608-100.72802291-40.0012326-151.1373432-30.13685097 9.2947848-58.82381906 24.95869787-80.63678894 48.00147912z"  /></svg>